<?xml version="1.0" standalone="no"?>
<!DOCTYPE svg PUBLIC "-//W3C//DTD SVG 20010904//EN"
 "http://www.w3.org/TR/2001/REC-SVG-20010904/DTD/svg10.dtd">
<svg version="1.0" xmlns="http://www.w3.org/2000/svg"
 width="2800.000000pt" height="100.000000pt" viewBox="0 0 2800.000000 100.000000"
 preserveAspectRatio="xMidYMid meet">

<g transform="translate(0.000000,100.000000) scale(0.100000,-0.100000)"
fill="#000000" stroke="none">
<path d="M0 500 l0 -500 14000 0 14000 0 0 500 0 500 -14000 0 -14000 0 0
-500z m10718 137 c3 -12 -3 -17 -22 -17 -25 0 -35 18 -19 34 12 12 38 2 41
-17z m6350 0 c3 -12 -3 -17 -22 -17 -25 0 -35 18 -19 34 12 12 38 2 41 -17z
m-6528 -72 c0 -83 0 -85 24 -85 19 0 25 6 28 27 4 39 36 43 40 6 2 -20 9 -28
23 -28 14 0 21 8 23 28 4 37 36 33 40 -6 5 -38 32 -36 32 3 0 23 4 30 20 30
16 0 20 -7 20 -31 0 -63 -6 -66 -142 -67 -71 0 -128 4 -135 10 -9 7 -13 41
-13 104 0 87 1 94 20 94 18 0 20 -7 20 -85z m560 66 c0 -14 -12 -23 -41 -33
l-41 -14 56 -52 c48 -45 60 -52 95 -52 39 0 41 2 41 30 0 23 4 30 20 30 16 0
20 -7 20 -34 0 -19 -7 -42 -16 -50 -18 -19 -95 -22 -126 -5 -14 8 -23 8 -31 0
-6 -6 -49 -11 -99 -11 -82 0 -89 2 -104 24 -19 30 -15 70 8 74 12 2 17 -5 20
-25 3 -28 4 -28 76 -31 85 -3 91 6 37 58 -46 45 -43 67 15 91 58 23 70 23 70
0z m2170 -50 c0 -88 5 -101 41 -101 26 0 29 4 29 30 0 23 5 30 19 30 14 0 21
-8 23 -27 2 -22 8 -28 28 -28 19 0 26 6 28 25 6 37 21 50 58 50 36 0 54 -21
54 -63 0 -50 -20 -55 -215 -55 -259 0 -255 0 -255 -17 0 -30 -47 -65 -85 -65
-29 0 -36 3 -33 18 2 11 15 19 38 22 42 6 57 40 18 40 -32 0 -48 18 -48 54 0
35 25 66 53 66 28 0 57 -29 57 -57 0 -19 5 -23 30 -23 27 0 30 3 30 30 0 23 5
30 19 30 14 0 21 -8 23 -27 2 -22 9 -29 31 -31 l27 -3 0 85 c0 70 3 86 15 86
12 0 15 -14 15 -69z m1998 -19 c2 -73 5 -82 22 -82 17 0 20 9 22 82 3 70 6 83
21 86 15 3 17 -6 17 -90 0 -60 -4 -98 -12 -106 -7 -7 -34 -12 -60 -12 l-48 0
0 106 c0 95 2 105 18 102 14 -3 17 -16 20 -86z m162 3 l0 -85 55 0 c66 0 70
12 20 60 -48 46 -43 67 20 91 62 24 65 24 65 0 0 -13 -11 -23 -35 -31 -19 -6
-35 -14 -35 -17 0 -3 16 -23 35 -44 38 -42 40 -50 25 -80 -9 -16 -22 -19 -88
-19 -47 0 -83 5 -90 12 -8 8 -12 46 -12 105 0 86 1 93 20 93 18 0 20 -7 20
-85z m1458 -3 c3 -79 4 -82 27 -82 18 0 24 6 27 27 4 39 36 43 40 6 2 -20 9
-28 23 -28 14 0 21 8 23 28 4 37 36 33 40 -6 5 -38 32 -36 32 3 0 23 4 30 20
30 16 0 20 -7 20 -31 0 -63 -6 -66 -142 -67 -71 0 -128 4 -135 10 -9 7 -13 42
-13 105 0 85 2 94 18 91 14 -3 17 -16 20 -86z m592 3 l0 -85 30 0 c28 0 30 2
20 20 -19 35 29 90 67 76 9 -4 22 -1 29 5 17 14 31 4 69 -51 24 -35 26 -44 17
-65 -11 -25 -14 -25 -130 -25 -78 0 -122 4 -130 12 -8 8 -12 46 -12 105 0 86
1 93 20 93 18 0 20 -7 20 -85z m-5660 55 c0 -13 -7 -20 -20 -20 -13 0 -20 7
-20 20 0 13 7 20 20 20 13 0 20 -7 20 -20z m700 -110 c0 -80 -4 -130 -10 -130
-6 0 -10 50 -10 130 0 80 4 130 10 130 6 0 10 -50 10 -130z m2470 0 c0 -80 -4
-130 -10 -130 -6 0 -10 50 -10 130 0 80 4 130 10 130 6 0 10 -50 10 -130z
m-1221 53 c35 -42 48 -91 32 -121 -9 -17 -21 -20 -81 -20 -64 0 -72 2 -82 23
-10 21 6 70 41 125 5 8 12 23 15 33 8 24 34 10 75 -40z m-3309 27 c0 -13 -7
-20 -19 -20 -22 0 -35 15 -26 30 12 19 45 11 45 -10z m230 0 c0 -13 -7 -20
-20 -20 -13 0 -20 7 -20 20 0 13 7 20 20 20 13 0 20 -7 20 -20z m50 0 c0 -13
-7 -20 -20 -20 -13 0 -20 7 -20 20 0 13 7 20 20 20 13 0 20 -7 20 -20z m3360
-1 c0 -14 -5 -19 -17 -17 -26 5 -29 38 -4 38 15 0 21 -6 21 -21z m2700 1 c0
-13 -7 -20 -19 -20 -22 0 -35 15 -26 30 12 19 45 11 45 -10z m240 0 c0 -13 -7
-20 -20 -20 -13 0 -20 7 -20 20 0 13 7 20 20 20 13 0 20 -7 20 -20z m48 3 c-5
-26 -38 -29 -38 -4 0 15 6 21 21 21 14 0 19 -5 17 -17z m707 -3 c0 -8 -10 -16
-22 -18 -18 -3 -23 2 -23 18 0 16 5 21 23 18 12 -2 22 -10 22 -18z m-6359 -52
l19 -53 57 -3 c55 -3 57 -2 60 25 2 20 9 28 23 28 16 0 20 -6 18 -33 -2 -58
-11 -61 -159 -61 -125 1 -134 2 -134 20 0 16 7 19 45 19 25 0 45 2 45 4 0 2
-7 23 -15 46 -8 23 -12 46 -9 51 13 22 33 5 50 -43z m809 6 c38 -51 40 -56 25
-85 -10 -17 -22 -19 -125 -19 -101 0 -115 -2 -115 -17 0 -27 -41 -63 -72 -63
-40 0 -39 35 1 43 32 7 41 27 41 95 0 36 3 43 18 40 10 -2 18 -14 20 -31 3
-23 8 -27 33 -27 27 0 29 2 19 20 -20 37 28 88 70 75 10 -3 21 -1 25 5 11 18
23 11 60 -36z m2470 0 c38 -51 40 -56 25 -85 -10 -17 -22 -19 -125 -19 -97 0
-115 -2 -115 -15 0 -23 -46 -65 -70 -65 -13 0 -20 7 -20 20 0 13 7 20 20 20
25 0 40 35 40 96 0 50 26 64 32 17 2 -24 8 -29 36 -31 31 -3 33 -2 22 17 -20
38 24 86 67 75 12 -3 24 -1 27 5 12 19 24 12 61 -35z m1555 -58 c0 -35 -20
-46 -82 -46 -51 0 -58 2 -58 20 0 17 7 20 50 20 28 0 50 3 50 8 -1 4 -14 22
-30 41 -24 28 -27 37 -17 49 10 12 17 8 49 -28 21 -23 38 -52 38 -64z m-3410
74 c0 -13 -7 -20 -20 -20 -13 0 -20 7 -20 20 0 13 7 20 20 20 13 0 20 -7 20
-20z m-996 -12 c9 -12 16 -30 16 -40 0 -26 -89 -68 -145 -68 -31 0 -45 -4 -45
-14 0 -25 -41 -66 -66 -66 -33 0 -33 36 1 44 22 6 24 12 27 69 3 54 5 62 23
62 14 0 21 -8 23 -27 3 -25 7 -28 43 -28 44 0 103 25 94 40 -4 6 -26 10 -51
10 -30 0 -44 4 -44 13 0 22 11 27 61 27 38 0 51 -5 63 -22z m2066 2 c11 -11
20 -29 20 -40 0 -24 -34 -60 -55 -60 -17 0 -65 43 -65 58 0 19 42 62 61 62 10
0 28 -9 39 -20z m2046 -5 c9 -14 14 -34 11 -45 -5 -18 0 -20 39 -20 42 0 44 1
44 30 0 23 4 30 20 30 16 0 20 -7 20 -34 0 -19 -7 -42 -16 -50 -21 -21 -117
-22 -134 -1 -11 13 -15 13 -41 0 -15 -8 -46 -15 -69 -15 -33 0 -40 -3 -40 -20
0 -38 -35 -60 -94 -60 -76 0 -98 20 -104 93 -4 53 -3 57 17 57 18 0 21 -6 21
-44 0 -54 16 -68 72 -64 31 2 44 8 46 21 3 13 -3 17 -27 17 -24 0 -31 4 -31
20 0 19 7 20 90 20 62 0 100 5 121 15 39 21 28 35 -27 35 -30 0 -44 4 -44 13
0 22 11 27 61 27 41 0 51 -4 65 -25z m1424 6 c0 -14 -8 -21 -27 -23 -20 -2
-29 -9 -31 -25 -3 -18 1 -23 20 -23 51 0 65 -54 23 -95 -19 -20 -34 -25 -73
-25 -71 0 -94 21 -100 93 -4 53 -3 57 17 57 18 0 21 -6 21 -43 0 -51 13 -67
56 -67 42 0 64 9 64 26 0 9 -12 14 -35 14 l-35 0 0 49 c0 40 4 53 22 65 33 23
78 21 78 -3z m-3158 -8 c13 -12 18 -31 18 -75 0 -49 -4 -63 -25 -83 -30 -31
-99 -36 -93 -7 2 11 15 19 38 22 42 6 57 40 18 40 -32 0 -48 18 -48 54 0 56
53 85 92 49z m3680 0 c13 -12 18 -31 18 -75 0 -49 -4 -63 -25 -83 -32 -33 -95
-36 -95 -5 0 14 7 20 24 20 35 0 56 10 56 26 0 8 -10 14 -24 14 -47 0 -66 62
-31 100 22 24 52 26 77 3z m-7732 -33 c0 -23 4 -30 20 -30 16 0 20 7 20 30 0
23 4 30 20 30 16 0 20 -7 20 -31 0 -24 4 -30 18 -27 10 2 18 14 20 31 4 37 36
33 40 -6 3 -24 7 -27 43 -27 37 0 39 2 39 30 0 23 4 30 20 30 16 0 20 -7 20
-34 0 -57 -18 -67 -128 -65 -150 2 -148 3 -162 -31 -16 -38 -37 -50 -88 -50
-60 0 -84 25 -90 93 -4 53 -3 57 17 57 18 0 21 -6 21 -43 0 -51 13 -67 55 -67
44 0 55 16 55 82 0 51 2 58 20 58 16 0 20 -7 20 -30z m2750 -25 c0 -60 -19
-109 -45 -119 -35 -13 -95 -6 -114 13 -36 36 -41 123 -8 129 14 3 17 -4 17
-40 0 -52 13 -68 55 -68 44 0 55 16 55 82 0 51 2 58 20 58 18 0 20 -7 20 -55z
m1160 -14 c0 -63 -2 -71 -26 -90 -35 -28 -74 -28 -74 -1 0 15 7 20 25 20 32 0
45 26 45 89 0 39 4 51 15 51 12 0 15 -14 15 -69z m250 0 c0 -63 -2 -71 -26
-90 -34 -27 -64 -27 -64 -1 0 13 7 20 20 20 27 0 40 29 40 89 0 39 4 51 15 51
12 0 15 -14 15 -69z m2190 39 c0 -23 4 -30 20 -30 16 0 20 7 20 30 0 23 4 30
20 30 16 0 20 -7 20 -31 0 -24 4 -30 18 -27 10 2 18 14 20 31 4 37 36 33 40
-6 3 -24 8 -27 38 -27 31 0 34 2 34 30 0 23 4 30 20 30 16 0 20 -7 20 -34 0
-57 -18 -66 -123 -65 -144 2 -143 3 -157 -31 -16 -38 -37 -50 -88 -50 -60 0
-84 25 -90 93 -4 53 -3 57 17 57 18 0 21 -6 21 -43 0 -51 13 -67 55 -67 44 0
55 16 55 82 0 51 2 58 20 58 16 0 20 -7 20 -30z m1255 -37 c0 -51 -4 -66 -24
-87 -30 -32 -81 -36 -81 -7 0 12 9 20 29 24 32 7 41 27 41 95 0 36 3 43 18 40
14 -3 17 -14 17 -65z m240 0 c0 -51 -4 -66 -24 -87 -29 -31 -71 -35 -71 -7 0
12 9 21 25 25 23 6 25 11 25 65 0 62 5 73 30 69 11 -3 15 -17 15 -65z m-6795
-84 c0 -15 -8 -19 -40 -19 -32 0 -40 4 -40 19 0 15 8 18 40 18 32 0 40 -3 40
-18z m280 1 c0 -13 -7 -20 -20 -20 -19 0 -27 20 -13 33 13 14 33 6 33 -13z
m48 -3 c2 -12 -3 -17 -17 -17 -12 0 -21 6 -21 13 0 31 32 34 38 4z m4360 0 c2
-12 -3 -17 -17 -17 -15 0 -21 6 -21 21 0 25 33 22 38 -4z m172 2 c0 -15 -8
-19 -40 -19 -32 0 -40 4 -40 19 0 15 8 18 40 18 32 0 40 -3 40 -18z m-2950 -4
c0 -8 -9 -15 -20 -15 -11 0 -20 7 -20 15 0 8 9 15 20 15 11 0 20 -7 20 -15z
m50 0 c0 -8 -9 -15 -20 -15 -11 0 -20 7 -20 15 0 8 9 15 20 15 11 0 20 -7 20
-15z m150 0 c0 -8 -9 -15 -20 -15 -11 0 -20 7 -20 15 0 8 9 15 20 15 11 0 20
-7 20 -15z m50 0 c0 -8 -9 -15 -20 -15 -11 0 -20 7 -20 15 0 8 9 15 20 15 11
0 20 -7 20 -15z"/>
<path d="M13004 509 c-9 -15 11 -33 30 -26 9 4 13 13 10 22 -7 17 -30 20 -40
4z"/>
<path d="M13475 510 c-8 -14 3 -30 21 -30 8 0 14 9 14 20 0 21 -24 28 -35 10z"/>
<path d="M17563 524 c-3 -8 1 -23 10 -32 15 -14 17 -14 23 1 8 21 -1 47 -16
47 -6 0 -13 -7 -17 -16z"/>
<path d="M17637 510 c-8 -29 -5 -33 23 -28 22 3 22 3 3 27 l-20 24 -6 -23z"/>
<path d="M13693 527 c-13 -18 -23 -41 -23 -50 0 -24 31 -21 37 3 3 11 12 20
19 20 8 0 14 -9 14 -20 0 -11 7 -20 15 -20 22 0 19 37 -6 71 -11 16 -23 29
-27 29 -4 0 -17 -15 -29 -33z"/>
<path d="M12123 524 c-3 -8 1 -23 10 -32 15 -14 17 -14 23 1 8 21 -1 47 -16
47 -6 0 -13 -7 -17 -16z"/>
<path d="M12197 510 c-8 -29 -5 -33 23 -28 22 3 22 3 3 27 l-20 24 -6 -23z"/>
<path d="M14593 524 c-3 -8 1 -23 10 -32 15 -14 17 -14 23 1 8 21 -1 47 -16
47 -6 0 -13 -7 -17 -16z"/>
<path d="M14670 522 c0 -6 -3 -17 -6 -26 -5 -12 0 -16 20 -16 31 0 33 11 6 35
-11 10 -20 13 -20 7z"/>
<path d="M13872 513 c5 -26 38 -29 38 -4 0 15 -6 21 -21 21 -14 0 -19 -5 -17
-17z"/>
<path d="M14184 509 c-9 -15 11 -33 30 -26 9 4 13 13 10 22 -7 17 -30 20 -40
4z"/>
<path d="M17865 510 c-8 -14 3 -30 21 -30 8 0 14 9 14 20 0 21 -24 28 -35 10z"/>
</g>
</svg>
